<svg version="1.2" xmlns="http://www.w3.org/2000/svg" viewBox="0 0 977 154" width="977" height="154"><style>.a{fill:#000211}.b{fill:#0cf}.c{fill:#f90}.d{fill:#ff00c4}.e{fill:#fdb300}.f{fill:#ea6c00}.g{fill:#fdad00}.h{fill:#fdd231}.i{fill:#feeeb7}.j{fill:#fff}.k{fill:#ea4c3a}.l{fill:none;stroke:#ea4c3a;stroke-linejoin:round;stroke-width:3.5}.m{fill:#706d6d}.n{fill:#bfbfbf}.o{fill:#414141}.p{fill:#e8e6e6}.q{fill:#1c1c1c}.r{fill:#686868}.s{fill:#da0100}.t{fill:#0acf83}.u{fill:#a259ff}.v{fill:#f24e1e}.w{fill:#ff7262}.x{fill:#1abcfe}</style><path class="a" d="m41.8 18.7h44c4.5 0 8 3.5 8 8v52c0 4.4-3.5 8-8 8h-44c-4.4 0-8-3.6-8-8v-52c0-4.5 3.6-8 8-8z"/><path fill-rule="evenodd" class="b" d="m41.8 18.7h44c4.5 0 8 3.5 8 8v52c0 4.4-3.5 8-8 8h-44c-4.4 0-8-3.6-8-8v-10.7h-8.6c-3.4 0-6.2-2.8-6.2-6.2v-16.6c0-3.4 2.8-6.2 6.2-6.2h8.6v-12.3c0-4.5 3.6-8 8-8zm-1.8 62.3h48v-56h-48v14h25.8c3.4 0 6.2 2.8 6.2 6.2v16.6c0 3.4-2.8 6.2-6.2 6.2h-25.8z"/><path  d="m27 45.3h5.1q3 0 4.4 1.3 1.4 1.3 1.4 3.6 0 1-0.3 2-0.3 0.9-1 1.6-0.7 0.8-1.9 1.2-1.2 0.4-2.9 0.4h-1.4v5.6h-3.4zm4.9 2.7h-1.5v4.7h1.1q0.9 0 1.6-0.3 0.7-0.2 1-0.7 0.4-0.6 0.4-1.4 0-1.1-0.6-1.7-0.7-0.6-2-0.6zm18.2 8.6q0 1.4-0.7 2.5-0.6 1-1.9 1.6-1.3 0.5-3.2 0.5-0.8 0-1.6-0.1-0.7-0.1-1.5-0.3-0.7-0.2-1.3-0.5v-3.1q1.1 0.5 2.3 0.9 1.2 0.4 2.4 0.4 0.8 0 1.3-0.2 0.5-0.3 0.7-0.6 0.3-0.4 0.3-0.9 0-0.6-0.4-1-0.4-0.4-1.1-0.8-0.7-0.4-1.6-0.8-0.5-0.2-1.2-0.6-0.6-0.4-1.2-0.9-0.6-0.5-1-1.3-0.3-0.8-0.3-1.9 0-1.4 0.6-2.4 0.7-1 1.8-1.5 1.2-0.5 2.9-0.5 1.2 0 2.3 0.3 1.1 0.2 2.3 0.8l-1 2.6q-1.1-0.5-2-0.7-0.8-0.3-1.7-0.3-0.6 0-1.1 0.3-0.4 0.1-0.7 0.5-0.2 0.4-0.2 0.8 0 0.6 0.3 1 0.4 0.4 1 0.7 0.7 0.4 1.7 0.8 1.2 0.6 2 1.2 0.9 0.6 1.4 1.5 0.4 0.8 0.4 2zm15.9-3.6q0 2.7-1 4.4-1 1.8-3 2.7-1.9 0.9-4.6 0.9h-4.4v-15.7h4.9q2.5 0 4.3 0.9 1.8 0.9 2.8 2.6 1 1.7 1 4.2zm-3.5 0.1q0-1.8-0.5-2.9-0.5-1.1-1.5-1.6-1-0.6-2.4-0.6h-1.8v10.3h1.4q2.5 0 3.6-1.3 1.2-1.3 1.2-3.9z"/><path class="a" d="m156.8 18.7h44c4.5 0 8 3.5 8 8v52c0 4.4-3.5 8-8 8h-44c-4.4 0-8-3.6-8-8v-52c0-4.5 3.6-8 8-8z"/><path fill-rule="evenodd" class="c" d="m156.8 18.7h44c4.5 0 8 3.5 8 8v52c0 4.4-3.5 8-8 8h-44c-4.4 0-8-3.6-8-8v-10.7h-8.6c-3.4 0-6.2-2.8-6.2-6.2v-16.6c0-3.4 2.8-6.2 6.2-6.2h8.6v-12.3c0-4.5 3.6-8 8-8zm-1.8 62.3h48v-56h-48v14h25.8c3.4 0 6.2 2.8 6.2 6.2v16.6c0 3.4-2.8 6.2-6.2 6.2h-25.8z"/><path  d="m165.1 61h-3.6l-1.1-3.7h-5.7l-1.2 3.7h-3.6l5.6-15.8h4zm-9.6-6.5h4.1l-1.1-3.7q-0.1-0.3-0.3-0.9-0.2-0.6-0.4-1.2-0.1-0.6-0.2-1-0.1 0.4-0.3 1.1-0.2 0.6-0.4 1.2-0.2 0.6-0.2 0.8zm14.9 6.6h-3.3v-15.7h3.3z"/><path class="a" d="m274.8 18.7h44c4.5 0 8 3.5 8 8v52c0 4.4-3.5 8-8 8h-44c-4.4 0-8-3.6-8-8v-52c0-4.5 3.6-8 8-8z"/><path fill-rule="evenodd" class="d" d="m274.8 18.7h44c4.5 0 8 3.5 8 8v52c0 4.4-3.5 8-8 8h-44c-4.4 0-8-3.6-8-8v-10.7h-8.6c-3.4 0-6.2-2.8-6.2-6.2v-16.6c0-3.4 2.8-6.2 6.2-6.2h8.6v-12.3c0-4.5 3.6-8 8-8zm-1.8 62.3h48v-56h-48v14h25.8c3.4 0 6.2 2.8 6.2 6.2v16.6c0 3.4-2.8 6.2-6.2 6.2h-25.8z"/><path  d="m273.1 53.1l5.3 7.9h-3.8l-3.7-5.9-3.6 5.9h-3.6l5.2-8.1-4.9-7.6h3.7l3.4 5.6 3.3-5.6h3.6zm20.3-0.1q0 2.7-1 4.4-1 1.8-3 2.7-1.9 0.9-4.6 0.9h-4.4v-15.7h4.9q2.5 0 4.3 0.9 1.8 0.9 2.8 2.6 1 1.7 1 4.2zm-3.5 0.1q0-1.7-0.5-2.9-0.5-1.1-1.5-1.6-1-0.6-2.4-0.6h-1.8v10.3h1.4q2.5 0 3.6-1.3 1.2-1.3 1.2-3.9z"/><path fill-rule="evenodd" class="e" d="m506.7 24.6l21.5-2.3 21.4 2.3 16.6 22.3-38 44.3-38.1-44.3z"/><path class="f" d="m505.5 46.9l22.7 44.3-38.1-44.3z"/><path class="f" d="m550.8 46.9l-22.6 44.3 38-44.3z"/><path class="g" d="m505.5 46.9h45.3l-22.6 44.3z"/><path class="h" d="m528.2 22.3l-21.5 2.3-1.2 22.3z"/><path class="h" d="m528.2 22.3l21.4 2.3 1.2 22.3z"/><path class="g" d="m566.2 46.9l-16.6-22.3 1.2 22.3z"/><path class="g" d="m490.1 46.9l16.6-22.3-1.2 22.3z"/><path class="i" d="m528.2 22.3l-22.7 24.6h45.3z"/><path class="j" d="m615 90.8v-66.8h70v66.8z"/><path fill-rule="evenodd" class="k" d="m615 90.9v-66.8h70v66.8zm6.7-6.7h56.5v-53.4h-56.5z"/><path class="l" d="m650.9 34.3c1 0.5 0.8 1.1 0.5 4.2-0.4 3.1-1.5 8.8-3.6 14.4-2.2 5.7-5.3 11.2-8.1 15.3-2.8 4.1-5.1 6.7-6.9 8.3-1.9 1.5-3.1 1.9-3.9 2.1-0.8 0.1-1.2 0-1.4-0.4-0.2-0.5-0.3-1.1-0.1-2 0.2-0.8 0.6-1.7 1.9-3 1.2-1.2 3.3-2.7 6.1-4.1 2.9-1.4 6.6-2.7 9.6-3.6 3.1-0.8 5.4-1.3 7.5-1.7 2.1-0.4 3.8-0.6 5.6-0.8q2.6-0.2 5.1 0c1.6 0.2 3.2 0.4 4.6 0.8 1.5 0.3 2.6 0.7 3.7 1.4 1 0.6 1.9 1.5 2.3 2.5 0.5 1 0.5 2.1 0.1 2.9-0.4 0.7-1.1 1.2-2 1.5-0.8 0.3-1.8 0.3-2.9 0-1.2-0.4-2.5-1.1-3.9-2.1-1.4-1-2.9-2.2-4.8-4.1-1.9-1.9-4.3-4.5-6.3-7-1.9-2.6-3.6-5-4.7-7.1-1.1-2.1-1.7-3.8-2.2-5.5-0.4-1.7-0.8-3.4-0.9-4.9-0.2-1.6-0.1-2.9 0-4q0.2-1.7 0.8-2.5c0.3-0.5 0.8-0.8 1.2-0.9 0.4-0.2 0.6-0.2 0.8-0.2 0.3 0 0.5-0.1 0.8 0 0.3 0.1 0.8 0.3 1.1 0.5z"/><path class="m" d="m793.7 17h-29.4c-3.9 0-7 3.1-7 7v2.4h43.4v-2.4c0-3.9-3.1-7-7-7z"/><path class="n" d="m820.7 26.4h-83.4c-4.6 0-8.3 3.7-8.3 8.3v42.5c0 4.6 3.7 8.3 8.3 8.3h83.4c4.6 0 8.3-3.7 8.3-8.3v-42.5c0-4.6-3.7-8.3-8.3-8.3z"/><path class="o" d="m829 35.7h-100v40.4h100z"/><path class="p" d="m779 28.9c-14.9 0-27.1 12.1-27.1 27 0 15 12.2 27.1 27.1 27.1 14.9 0 27.1-12.1 27.1-27.1 0-14.9-12.2-27-27.1-27z"/><path class="q" d="m779 36.8c-10.6 0-19.2 8.6-19.2 19.1 0 10.6 8.6 19.2 19.2 19.2 10.6 0 19.2-8.6 19.2-19.2 0-10.5-8.6-19.1-19.2-19.1z"/><path class="r" d="m771.1 42.3c-3.1 0-5.7 2.5-5.7 5.7 0 3.1 2.6 5.6 5.7 5.6 3.1 0 5.7-2.5 5.7-5.6 0-3.2-2.6-5.7-5.7-5.7z"/><path class="s" d="m822.8 37.5c-1.4 0-2.4 1.1-2.4 2.4 0 1.3 1 2.4 2.4 2.4 1.3 0 2.3-1.1 2.3-2.4 0-1.3-1-2.4-2.3-2.4z"/><path  d="m870.2 21.8h81.4c5.6 0 10.1 4.5 10.1 10v50.2c0 5.5-4.5 10-10.1 10h-81.4c-5.6 0-10.2-4.5-10.2-10v-50.2c0-5.5 4.6-10 10.2-10z"/><path class="j" d="m872.9 40.2q-1.9 0-3-0.9-1-0.8-1.4-2.7l2.7-0.3q0.1 0.9 0.6 1.4 0.4 0.4 1.2 0.4 0.7 0 1.1-0.5 0.5-0.5 0.5-1.5v-6.5h-2.6v-2h5.2v8.5q0 1.9-1.1 3-1.1 1.1-3.2 1.1zm17.1-8.7q0 1.2-0.5 2.1-0.6 1-1.6 1.5-1 0.5-2.5 0.5h-3.1v4.4h-2.6v-12.4h5.6q2.3 0 3.5 1 1.2 1 1.2 2.9zm-2.6 0q0-1.9-2.4-1.9h-2.7v4h2.8q1.1 0 1.7-0.5 0.6-0.5 0.6-1.6zm10.5 6.6q1 0 2-0.3 0.9-0.3 1.5-0.7v-1.7h-3.1v-2h5.5v4.6q-1 1-2.6 1.6-1.6 0.6-3.4 0.6-3.1 0-4.7-1.7-1.7-1.7-1.7-4.8 0-3 1.7-4.7 1.6-1.6 4.8-1.6 4.4 0 5.6 3.2l-2.4 0.7q-0.4-0.9-1.3-1.4-0.8-0.5-1.9-0.5-1.9 0-2.9 1.1-0.9 1.2-0.9 3.2 0 2.1 1 3.3 1 1.1 2.8 1.1zm28.8-6.6q0 1.2-0.6 2.1-0.5 1-1.6 1.5-1 0.5-2.4 0.5h-3.2v4.4h-2.6v-12.4h5.7q2.2 0 3.4 1 1.3 1 1.3 2.9zm-2.7 0q0-1.9-2.3-1.9h-2.8v4h2.8q1.1 0 1.7-0.5 0.6-0.5 0.6-1.6zm15.3 8.5h-3.1l-5.5-9.6q0.2 1.4 0.2 2.3v7.3h-2.4v-12.4h3l5.6 9.6q-0.2-1.3-0.2-2.4v-7.2h2.4zm8.4-1.9q1.1 0 2-0.3 1-0.3 1.5-0.7v-1.8h-3.1v-1.9h5.5v4.6q-1 1-2.6 1.6-1.6 0.5-3.3 0.5-3.1 0-4.8-1.6-1.6-1.7-1.6-4.8 0-3.1 1.6-4.7 1.7-1.6 4.8-1.6 4.5 0 5.7 3.2l-2.5 0.7q-0.4-0.9-1.2-1.4-0.8-0.5-2-0.5-1.8 0-2.8 1.1-1 1.1-1 3.2 0 2.1 1 3.3 1 1.1 2.8 1.1zm-71.2 20q1 0 2-0.3 1-0.3 1.5-0.7v-1.8h-3.1v-1.9h5.5v4.6q-1 1-2.6 1.6-1.6 0.5-3.4 0.5-3 0-4.7-1.6-1.7-1.7-1.7-4.8 0-3.1 1.7-4.7 1.7-1.6 4.8-1.6 4.4 0 5.6 3.2l-2.4 0.7q-0.4-0.9-1.2-1.4-0.9-0.5-2-0.5-1.9 0-2.8 1.1-1 1.1-1 3.2 0 2.1 1 3.3 1 1.1 2.8 1.1zm10.9 1.9h-2.6v-12.5h2.6zm11.7-10.4h-6.6v3.9h6.4v2h-6.4v4.5h-2.6v-12.4h9.2zm27 0h-4.1v10.4h-2.6v-10.4h-4.1v-2h10.8zm4 10.4h-2.6v-12.4h2.6zm11.8-10.4h-6.7v3.8h6.5v2h-6.5v4.6h-2.6v-12.4h9.3zm11.2 0h-6.7v3.8h6.4v2h-6.4v4.6h-2.6v-12.5h9.3zm-73.9 25.9q0 1.8-1.3 2.8-1.4 0.9-4.1 0.9-2.4 0-3.8-0.8-1.3-0.9-1.7-2.6l2.5-0.4q0.3 1 1 1.4 0.8 0.5 2.1 0.5 2.8 0 2.8-1.7 0-0.5-0.3-0.8-0.4-0.4-0.9-0.6-0.6-0.2-2.2-0.6-1.5-0.3-2-0.5-0.6-0.2-1-0.5-0.5-0.2-0.8-0.6-0.3-0.4-0.5-0.9-0.1-0.5-0.1-1.2 0-1.7 1.2-2.6 1.3-0.9 3.8-0.9 2.3 0 3.5 0.8 1.2 0.7 1.5 2.4l-2.5 0.3q-0.2-0.8-0.8-1.2-0.6-0.4-1.8-0.4-2.4 0-2.4 1.5 0 0.5 0.3 0.8 0.2 0.3 0.7 0.5 0.5 0.2 2.1 0.5 1.8 0.4 2.6 0.7 0.8 0.4 1.2 0.8 0.5 0.4 0.7 1 0.2 0.6 0.2 1.4zm12.9-8.9l-4.7 12.5h-2.7l-4.6-12.5h2.7l2.6 8q0.3 0.8 0.7 2.4l0.2-0.8 0.4-1.6 2.6-8zm7.4 10.6q1 0 2-0.3 0.9-0.3 1.4-0.7v-1.8h-3v-1.9h5.5v4.6q-1 1-2.6 1.6-1.7 0.5-3.4 0.5-3.1 0-4.7-1.6-1.7-1.7-1.7-4.8 0-3.1 1.7-4.7 1.6-1.7 4.8-1.7 4.4 0 5.6 3.3l-2.4 0.7q-0.4-0.9-1.3-1.4-0.8-0.5-1.9-0.5-1.9 0-2.9 1.1-0.9 1.1-0.9 3.2 0 2.1 1 3.3 1 1.1 2.8 1.1zm29.6-4.4q0 1.9-0.7 3.3-0.8 1.4-2.2 2.2-1.4 0.8-3.2 0.8h-5.1v-12.5h4.6q3.1 0 4.9 1.6 1.7 1.6 1.7 4.6zm-2.6 0q0-2-1.1-3.1-1-1.1-3-1.1h-1.9v8.5h2.3q1.7 0 2.7-1.2 1-1.2 1-3.1zm15.9 0q0 1.9-0.8 3.3-0.8 1.4-2.2 2.2-1.4 0.8-3.2 0.8h-5.1v-12.5h4.6q3.2 0 4.9 1.6 1.8 1.6 1.8 4.6zm-2.7 0q0-2-1.1-3.1-1-1.1-3-1.1h-1.8v8.5h2.2q1.7 0 2.7-1.2 1-1.2 1-3.1zm14.9 2.7q0 1.8-1.4 2.8-1.3 0.9-4 0.9-2.4 0-3.8-0.8-1.4-0.9-1.7-2.6l2.5-0.4q0.3 1 1 1.4 0.8 0.5 2.1 0.5 2.8 0 2.8-1.7 0-0.5-0.4-0.8-0.3-0.4-0.9-0.6-0.5-0.2-2.2-0.6-1.4-0.3-1.9-0.5-0.6-0.2-1-0.5-0.5-0.2-0.8-0.6-0.3-0.4-0.5-0.9-0.2-0.5-0.2-1.2 0-1.7 1.3-2.6 1.3-0.9 3.8-0.9 2.3 0 3.5 0.8 1.2 0.7 1.5 2.4l-2.6 0.3q-0.2-0.8-0.8-1.2-0.6-0.4-1.7-0.4-2.4 0-2.4 1.5 0 0.5 0.3 0.8 0.2 0.3 0.7 0.5 0.5 0.2 2.1 0.5 1.8 0.4 2.5 0.7 0.8 0.4 1.3 0.8 0.4 0.4 0.7 1 0.2 0.6 0.2 1.4zm-46.8 12.6h-2.6v-2.7h2.6zm5.1 0h-2.6v-2.7h2.6zm5.1 0h-2.6v-2.6h2.6z"/><path class="j" d="m26.4 134h-3.3v-3.6h3.3zm24-16.3q0 3.3-2.2 5.2-2.1 2-5.9 2h-6.9v9.1h-3.1v-23.4h9.8q4 0 6.1 1.9 2.2 1.8 2.2 5.2zm-3.2 0q0-4.5-5.5-4.5h-6.3v9.2h6.5q5.3 0 5.3-4.7zm26.2 9.8q0 3.3-2.6 5-2.5 1.8-7.1 1.8-8.6 0-10-5.9l3.1-0.6q0.5 2.1 2.3 3.1 1.7 0.9 4.7 0.9 3.1 0 4.7-1 1.7-1.1 1.7-3.1 0-1.2-0.5-1.9-0.5-0.7-1.5-1.1-0.9-0.5-2.3-0.8-1.3-0.3-2.9-0.7-2.7-0.6-4.2-1.2-1.4-0.6-2.3-1.4-0.8-0.7-1.2-1.8-0.5-1-0.5-2.3 0-3 2.3-4.6 2.3-1.6 6.6-1.6 4 0 6.1 1.2 2.2 1.2 3 4.1l-3.1 0.6q-0.5-1.9-2-2.7-1.4-0.8-4-0.8-2.8 0-4.3 0.9-1.5 0.9-1.5 2.8 0 1 0.6 1.7 0.6 0.7 1.7 1.2 1 0.5 4.3 1.2 1 0.3 2.1 0.5 1.1 0.3 2.1 0.7 1 0.3 1.8 0.8 0.9 0.5 1.5 1.2 0.6 0.7 1 1.6 0.4 1 0.4 2.2zm24.5-5.4q0 3.6-1.4 6.3-1.4 2.7-4 4.1-2.6 1.5-6 1.5h-8.8v-23.4h7.8q5.9 0 9.1 3 3.3 3 3.3 8.5zm-3.2 0q0-4.4-2.4-6.7-2.4-2.2-6.9-2.2h-4.5v18.2h5.2q2.6 0 4.5-1.1 2-1.1 3-3.2 1.1-2.2 1.1-5zm68 11.9h-3.3v-3.7h3.3zm25.7 0h-3.2l-2.7-6.8h-10.7l-2.7 6.8h-3.3l9.6-23.3h3.6zm-10.8-19.6l-0.4-1.4-0.2 0.5q-0.4 1.4-1.2 3.5l-3 7.7h8.7l-3-7.7q-0.4-1.1-0.9-2.6zm17.2 19.6h-3.2v-23.3h3.2zm75.8 0h-3.3v-3.7h3.3zm25.1 0h-3.5l-7.1-10.2-7.1 10.2h-3.6l9-12.1-8.3-11.2h3.5l6.6 9.1 6.3-9.1h3.5l-8 11.1zm23.7-11.9q0 3.6-1.4 6.3-1.5 2.7-4 4.1-2.6 1.5-6 1.5h-8.8v-23.4h7.7q6 0 9.2 3 3.3 3 3.3 8.5zm-3.2 0q0-4.4-2.4-6.6-2.4-2.3-6.9-2.3h-4.5v18.2h5.2q2.6 0 4.5-1.1 2-1.1 3-3.2 1.1-2.1 1.1-5zm68 11.9h-3.3v-3.6h3.3zm22.5-20.8h-13.5v8.7h13.1v2.6h-13.1v9.5h-3.1v-23.4h16.6zm7.7 20.8h-3.2v-23.4h3.2zm4.9-11.8q0-5.6 3-8.7 3.1-3.2 8.6-3.2 3.9 0 6.3 1.3 2.5 1.4 3.8 4.2l-3 0.9q-1-2-2.8-2.9-1.8-0.9-4.4-0.9-4 0-6.2 2.5-2.1 2.4-2.1 6.8 0 4.5 2.3 7 2.2 2.6 6.3 2.6 2.3 0 4.2-0.7 2-0.7 3.3-1.9v-4.2h-7v-2.7h9.9v8.1q-1.9 1.9-4.6 2.9-2.7 1.1-5.8 1.1-3.7 0-6.4-1.5-2.6-1.5-4-4.2-1.4-2.7-1.4-6.5zm59.5 11.8h-3.3v-3.6h3.3zm18.9-5q0 2.6-1.9 4-1.9 1.3-5.4 1.3-3.4 0-5.2-1.1-1.8-1.1-2.3-3.4l2.6-0.5q0.4 1.4 1.6 2.1 1.2 0.7 3.3 0.7 2.3 0 3.3-0.7 1.1-0.7 1.1-2.1 0-1.1-0.7-1.7-0.8-0.7-2.4-1.1l-2.1-0.6q-2.6-0.7-3.7-1.3-1.1-0.6-1.7-1.6-0.6-0.9-0.6-2.2 0-2.4 1.7-3.7 1.8-1.3 5.1-1.3 3 0 4.8 1 1.7 1.1 2.2 3.4l-2.7 0.3q-0.3-1.2-1.4-1.8-1-0.7-2.9-0.7-2 0-3 0.7-0.9 0.6-0.9 1.8 0 0.8 0.4 1.3 0.4 0.5 1.2 0.8 0.7 0.4 3.3 1 2.3 0.6 3.4 1.1 1 0.5 1.6 1.1 0.6 0.6 1 1.4 0.3 0.8 0.3 1.8zm18.3 5h-3.5l-6.1-8.2-2.2 1.8v6.4h-3v-24.6h3v15.4l7.9-8.7h3.5l-7.3 7.7zm17.4-8.4h-12.8q0 3.1 1.3 4.8 1.2 1.7 3.7 1.7 1.9 0 3.1-0.8 1.2-0.8 1.6-2l2.6 0.8q-1.6 4.2-7.3 4.2-4 0-6.1-2.4-2.1-2.3-2.1-7 0-4.4 2.1-6.8 2.1-2.4 6-2.4 7.9 0 7.9 9.5zm-12.8-2.2h9.7q-0.2-2.9-1.4-4.2-1.2-1.3-3.5-1.3-2.1 0-3.4 1.5-1.3 1.4-1.4 4zm23.6 8.2v2.2q-1.5 0.4-3.1 0.4-3.6 0-3.6-4v-12h-2v-2.1h2.1l0.9-4.1h2v4.1h3.4v2.1h-3.4v11.3q0 1.3 0.4 1.9 0.5 0.5 1.5 0.5 0.6 0 1.8-0.3zm4.8-6.7q0 3.6 1.1 5.3 1.1 1.8 3.4 1.8 1.6 0 2.7-0.9 1.1-0.9 1.3-2.7l3 0.2q-0.3 2.6-2.2 4.2-1.8 1.5-4.7 1.5-3.8 0-5.8-2.4-2-2.3-2-6.9 0-4.5 2-6.9 2-2.4 5.8-2.4 2.7 0 4.5 1.4 1.9 1.5 2.3 4l-3 0.2q-0.3-1.5-1.2-2.4-1-0.8-2.7-0.8-2.4 0-3.5 1.5-1 1.6-1 5.3zm17.7-5.8q1-1.7 2.3-2.5 1.4-0.9 3.5-0.9 2.9 0 4.3 1.5 1.4 1.4 1.4 4.8v12h-3v-11.4q0-1.9-0.4-2.8-0.3-0.9-1.1-1.3-0.8-0.5-2.3-0.5-2.1 0-3.3 1.5-1.3 1.4-1.3 3.9v10.6h-3v-24.6h3v6.4q0 1-0.1 2.1 0 1.1 0 1.2zm48.4 14.9h-3.2v-3.6h3.2zm24.1-16.4q0 3.3-2.2 5.3-2.2 2-5.9 2h-6.9v9.1h-3.2v-23.4h9.9q3.9 0 6.1 1.8 2.2 1.9 2.2 5.2zm-3.2 0.1q0-4.6-5.5-4.6h-6.3v9.3h6.5q5.3 0 5.3-4.7zm27.9 4.3q0 3.7-1.4 6.4-1.4 2.7-4 4.1-2.6 1.5-6 1.5h-8.7v-23.4h7.7q6 0 9.2 3 3.2 3 3.2 8.4zm-3.2 0q0-4.3-2.3-6.6-2.4-2.3-7-2.3h-4.5v18.3h5.3q2.5 0 4.5-1.1 2-1.1 3-3.3 1-2.1 1-5zm24.3-8.8h-13.5v8.7h13.1v2.6h-13.1v9.5h-3.1v-23.4h16.6zm81.2 20.8h-3.7l-6-9.7h-7.4v9.7h-3.1v-23.4h11q4 0 6.1 1.8 2.2 1.8 2.2 4.9 0 2.6-1.6 4.4-1.5 1.7-4.2 2.2zm-4.1-16.6q0-2.1-1.4-3.1-1.4-1.1-4-1.1h-7.5v8.6h7.7q2.5 0 3.8-1.1 1.4-1.2 1.4-3.3zm28.4 16.6h-3.3l-2.6-6.8h-10.7l-2.7 6.8h-3.3l9.6-23.3h3.6zm-10.8-19.6l-0.5-1.4-0.1 0.5q-0.5 1.3-1.3 3.5l-3 7.7h8.8l-3-7.7q-0.5-1.2-0.9-2.6zm41.6-3.8l-6.9 23.4h-3.8l-4-14.9q-0.4-1.4-1.2-4.9-0.4 1.9-0.7 3.2-0.3 1.3-4.6 16.6h-3.8l-6.9-23.4h3.3l4.2 14.9q0.8 2.7 1.4 5.7 0.4-1.8 0.9-4 0.6-2.1 4.7-16.6h3l4.1 14.6q0.9 3.5 1.4 6l0.2-0.6q0.4-1.9 0.7-3.1 0.3-1.2 4.7-16.9zm77.7 23.4h-3.3l-2.6-6.9h-10.7l-2.7 6.9h-3.3l9.6-23.4h3.6zm-10.8-19.6l-0.5-1.3-0.1 0.4q-0.5 1.4-1.3 3.6l-3 7.6h8.8l-3-7.7q-0.5-1.1-0.9-2.6zm32.7 19.6h-3.9l-12.5-19.9 0.1 1.6 0.1 2.8v15.5h-2.9v-23.3h3.7l12.7 20q-0.2-3.3-0.2-4.7v-15.3h2.9zm24.7-23.4l-9 13.7v9.7h-3.2v-9.7l-9-13.7h3.5l7.1 11.2 7.1-11.2z"/><path class="t" d="m401.2 92.3c6.8 0 12.3-5.5 12.3-12.2v-12.3h-12.3c-6.7 0-12.2 5.5-12.2 12.3 0 6.7 5.5 12.2 12.2 12.2z"/><path class="u" d="m389 55.6c0-6.8 5.5-12.2 12.2-12.2h12.3v24.4h-12.3c-6.7 0-12.2-5.4-12.2-12.2z"/><path class="v" d="m389 31.1c0-6.7 5.5-12.2 12.2-12.2h12.3v24.5h-12.3c-6.7 0-12.2-5.5-12.2-12.3z"/><path class="w" d="m413.5 18.9h12.2c6.8 0 12.2 5.5 12.2 12.2 0 6.8-5.4 12.3-12.2 12.3h-12.2z"/><path class="x" d="m425.7 67.8c-6.8 0-12.2-5.4-12.2-12.2 0-6.8 5.4-12.2 12.2-12.2 6.8 0 12.2 5.4 12.2 12.2 0 6.8-5.4 12.2-12.2 12.2z"/></svg>